<?xml version="1.0" encoding="UTF-8" standalone="no"?>
<svg width="769px" height="249px" viewBox="0 0 769 249" version="1.1" xmlns="http://www.w3.org/2000/svg" xmlns:xlink="http://www.w3.org/1999/xlink" xmlns:sketch="http://www.bohemiancoding.com/sketch/ns">
    <!-- Generator: Sketch 3.4.2 (15857) - http://www.bohemiancoding.com/sketch -->
    <title>LIFESTYLE-LOGO</title>
    <desc>Created with Sketch.</desc>
    <defs></defs>
    <g id="Page-1" stroke="none" stroke-width="1" fill="none" fill-rule="evenodd" sketch:type="MSPage">
        <g id="LIFESTYLE-LOGO" sketch:type="MSLayerGroup">
            <path d="M40.631,201.813 C13.307,201.506 0,189.582 0,165.432 L0,26.077 L19.851,26.077 L19.851,161.709 C19.851,168.666 21.925,174.272 25.956,178.33 C29.734,182.106 34.676,184.19 40.631,184.387 L40.631,201.813" id="Fill-1" fill="#1A1918" sketch:type="MSShapeGroup"></path>
            <path d="M65.003,202.18 L65.003,91.128 L48.049,91.128 L48.049,74.762 L84.869,74.762 L84.869,202.18 L65.003,202.18" id="Fill-2" fill="#1A1918" sketch:type="MSShapeGroup"></path>
            <path d="M120.982,201.901 L120.982,93.552 L102.985,93.552 L102.985,74.894 L121.136,74.894 L121.136,73.753 C121.136,58.895 124.556,48.621 132.614,39.355 C140.218,30.613 150.362,26.183 162.868,26.183 C168.8,26.183 175.106,27.182 182.067,29.274 L176.705,43.228 C172.352,41.849 168.431,41.199 164.744,41.199 C157.6,41.199 151.671,43.927 147.081,49.297 C142.472,54.583 140.153,61.341 140.153,69.452 C140.153,70.676 140.153,71.237 140.127,71.77 C140.127,72.268 140.086,72.78 140.086,73.753 L140.086,74.894 L166.145,74.894 L166.145,93.552 L140.88,93.552 L140.88,201.901 L120.982,201.901" id="Fill-3" fill="#1A1918" sketch:type="MSShapeGroup"></path>
            <path d="M225.936,91.65 C215.792,91.65 207.204,95.012 200.353,101.556 C193.831,107.841 190.042,115.69 189.182,124.966 L189.068,126.214 L260.458,126.214 L260.458,125.061 C260.458,115.881 257.536,108.042 251.749,101.831 C245.432,95.071 236.755,91.65 225.936,91.65 L225.936,91.65 Z M225.211,201.842 C209.984,201.842 196.834,196.574 186.186,186.217 C174.316,174.776 168.259,159.119 168.259,139.696 C168.259,119.516 174.43,103.067 186.622,90.916 C197.543,80.095 210.591,74.62 225.453,74.62 C242.809,74.62 256.603,79.551 266.38,89.299 C275.843,98.623 280.653,111.239 280.653,126.799 C280.653,131.335 280.148,135.409 279.193,139.136 L189.186,139.136 L189.186,140.337 C189.186,155.213 193.315,166.822 201.479,174.863 C208.726,181.901 218.155,185.471 229.505,185.471 C241.814,185.471 252.349,181.944 260.813,174.994 L268.911,188.938 C265.659,192.026 260.729,194.703 254.32,197.014 C245.64,200.233 235.859,201.842 225.211,201.842 L225.211,201.842 Z" id="Fill-4" fill="#1A1918" sketch:type="MSShapeGroup"></path>
            <path d="M329.404,201.842 C316.935,201.842 305.025,198.748 293.975,192.668 L300.877,173.947 C312.794,181.586 322.549,185.471 329.997,185.471 C344.321,185.471 351.596,179.266 351.596,167.049 C351.596,158.36 344.708,150.887 331.127,144.813 C320.9,140.088 314.25,136.642 310.797,134.268 C307.252,131.857 304.348,129.257 301.861,126.251 C299.348,123.316 297.519,120.229 296.25,116.831 C294.977,113.484 294.392,109.955 294.392,106.037 C294.392,96.201 298.02,88.446 305.08,82.957 C312.278,77.389 321.851,74.561 333.501,74.561 C342.063,74.561 353.125,77.316 366.33,82.697 L360.85,100.547 C352.375,94.182 343.709,90.964 335.1,90.964 C329.653,90.964 324.993,92.269 321.203,94.885 C317.282,97.613 315.271,101.129 315.271,105.299 C315.271,113.744 320.095,120.204 329.546,124.516 L345.345,131.762 C354.844,136.119 361.816,141.086 366.121,146.562 C370.328,152.037 372.463,158.936 372.463,167.203 C372.463,178.008 368.663,186.553 361.121,192.596 C353.604,198.748 342.945,201.842 329.404,201.842" id="Fill-5" fill="#1A1918" sketch:type="MSShapeGroup"></path>
            <path d="M426.383,201.842 C416.822,201.842 408.68,198.25 402.176,191.178 C395.643,184.117 392.307,174.994 392.307,164.11 L392.307,92.01 L377.728,92.01 L377.728,74.975 L392.307,74.975 L392.307,48.489 L412.146,40.866 L412.146,74.975 L446.473,74.975 L446.473,92.01 L412.146,92.01 L412.146,155.242 C412.146,165.938 413.961,173.721 417.67,178.381 C421.482,183.07 427.525,185.471 435.711,185.471 C441.088,185.471 446.678,184.272 452.441,181.799 L455.295,198.653 C446.531,200.781 436.814,201.842 426.383,201.842" id="Fill-6" fill="#1A1918" sketch:type="MSShapeGroup"></path>
            <path d="M470.598,231.223 C479.525,231.076 487.309,228.822 493.797,224.58 C500.695,220.08 504.215,214.455 504.215,207.813 C504.215,200.848 502.963,193.942 500.514,187.24 C497.93,180.16 494.807,171.863 491.186,162.586 L457.24,75.25 L477.293,75.25 L515.59,176.047 L550.441,74.737 L570.473,74.737 L517.148,221.719 C514.318,229.393 508.42,235.846 499.598,240.924 C490.951,245.867 481.252,248.473 470.598,248.662 L470.598,231.223" id="Fill-7" fill="#1A1918" sketch:type="MSShapeGroup"></path>
            <path d="M623.014,201.813 C595.695,201.506 582.396,189.582 582.396,165.432 L582.396,26.077 L602.279,26.077 L602.279,161.709 C602.279,168.666 604.291,174.235 608.322,178.33 C612.127,182.106 617.057,184.19 623.014,184.387 L623.014,201.813" id="Fill-8" fill="#1A1918" sketch:type="MSShapeGroup"></path>
            <path d="M683.322,90.964 C673.197,90.964 664.564,94.266 657.689,100.857 C651.162,107.141 647.418,114.98 646.51,124.194 L646.416,125.478 L717.846,125.478 L717.846,124.304 C717.846,115.145 714.926,107.354 709.176,101.129 C702.805,94.384 694.127,90.964 683.322,90.964 L683.322,90.964 Z M681.934,201.842 C666.6,201.842 653.482,196.574 642.838,186.158 C630.986,174.731 624.973,159.106 624.973,139.696 C624.973,119.479 631.148,103.067 643.35,90.904 C654.205,80.085 667.293,74.561 682.152,74.561 C699.506,74.561 713.271,79.525 723.047,89.265 C732.514,98.623 737.318,111.239 737.318,126.784 C737.318,131.214 736.857,135.337 735.863,139.089 L645.896,139.089 L645.896,140.266 C645.896,155.162 649.992,166.801 658.143,174.834 C665.4,181.871 674.836,185.471 686.197,185.471 C698.525,185.471 709.008,181.944 717.473,174.994 L725.592,188.938 C722.352,192.004 717.414,194.674 710.961,196.985 C702.357,200.211 692.607,201.842 681.934,201.842 L681.934,201.842 Z" id="Fill-9" fill="#1A1918" sketch:type="MSShapeGroup"></path>
            <path d="M754.066,81.021 C753.422,80.783 752.582,80.67 751.441,80.67 L750.338,80.67 L750.338,85.665 L752.098,85.665 C753.135,85.665 753.963,85.452 754.561,85.032 C755.135,84.612 755.434,83.922 755.434,82.987 C755.434,82.049 754.975,81.387 754.066,81.021 L754.066,81.021 Z M745.836,94.856 L745.836,77.627 C746.893,77.627 748.494,77.627 750.615,77.643 C752.756,77.65 753.939,77.655 754.168,77.673 C755.527,77.773 756.684,78.061 757.58,78.555 C759.109,79.401 759.881,80.768 759.881,82.665 C759.881,84.123 759.467,85.158 758.648,85.809 C757.846,86.456 756.844,86.835 755.676,86.968 C756.752,87.186 757.58,87.52 758.121,87.952 C759.133,88.786 759.639,90.059 759.639,91.822 L759.639,93.37 C759.639,93.531 759.639,93.697 759.674,93.87 C759.697,94.037 759.742,94.209 759.801,94.377 L759.951,94.856 L755.652,94.856 C755.504,94.313 755.412,93.525 755.377,92.472 C755.32,91.44 755.229,90.732 755.088,90.364 C754.859,89.771 754.445,89.346 753.813,89.104 C753.479,88.972 752.961,88.865 752.26,88.831 L751.293,88.761 L750.338,88.761 L750.338,94.856 L745.836,94.856 L745.836,94.856 Z M743.494,77.201 C741.02,79.735 739.789,82.734 739.789,86.209 C739.789,89.824 741.033,92.881 743.563,95.386 C746.066,97.908 749.104,99.168 752.627,99.168 C756.164,99.168 759.191,97.896 761.693,95.368 C764.166,92.824 765.432,89.771 765.432,86.209 C765.432,82.752 764.201,79.746 761.717,77.201 C759.191,74.615 756.164,73.315 752.627,73.315 C749.068,73.315 746.031,74.615 743.494,77.201 L743.494,77.201 Z M763.533,97.373 C760.49,100.303 756.879,101.759 752.627,101.759 C748.264,101.759 744.58,100.269 741.584,97.275 C738.576,94.266 737.104,90.589 737.104,86.209 C737.104,81.659 738.703,77.888 741.939,74.888 C744.971,72.064 748.539,70.661 752.627,70.661 C756.936,70.661 760.594,72.188 763.637,75.221 C766.674,78.261 768.188,81.923 768.188,86.209 C768.188,90.629 766.615,94.342 763.533,97.373 L763.533,97.373 Z" id="Fill-36" fill="#1A1918" sketch:type="MSShapeGroup"></path>
            <path d="M90.414,37.504 C90.414,51.96 78.727,63.622 64.279,63.622 C49.867,63.622 38.155,51.96 38.155,37.504 C38.155,23.074 49.867,11.373 64.279,11.373 C78.727,11.373 90.414,23.074 90.414,37.504" id="Fill-37" fill="#DD488C" sketch:type="MSShapeGroup"></path>
            <path d="M113.889,24.438 C113.889,37.541 103.249,48.134 90.136,48.134 C77.04,48.134 66.429,37.541 66.429,24.438 C66.429,11.303 77.04,0.695 90.136,0.695 C103.249,0.695 113.889,11.303 113.889,24.438" id="Fill-38" fill="#EE9F2D" sketch:type="MSShapeGroup"></path>
            <path d="M69.908,12.003 C67.677,15.627 66.382,19.841 66.382,24.438 C66.382,36.861 75.947,47.089 88.146,48.108 C89.613,44.856 90.414,41.268 90.414,37.504 C90.414,24.998 81.653,14.591 69.908,12.003" id="Fill-39" fill="#C6242A" sketch:type="MSShapeGroup"></path>
            <path d="M0,243.014 L461.602,243.014 L461.602,234.266 L0,234.266 L0,243.014 Z" id="Fill-40" sketch:type="MSShapeGroup"></path>
            <path d="M521.662,242.959 L737.318,242.959 L737.318,234.268 L521.662,234.268 L521.662,242.959 Z" id="Fill-42" sketch:type="MSShapeGroup"></path>
        </g>
    </g>
</svg>